<mxfile host="app.diagrams.net" modified="2021-09-03T17:10:34.705Z" agent="5.0 (Windows NT 10.0; Win64; x64) AppleWebKit/537.36 (KHTML, like Gecko) Chrome/93.0.4577.58 Safari/537.36" etag="3PtG38BgFfwE42RuOSDj" version="15.0.6" type="github">
  <diagram id="kgpKYQtTHZ0yAKxKKP6v" name="Page-1">
    <mxGraphModel dx="1221" dy="686" grid="1" gridSize="10" guides="1" tooltips="1" connect="1" arrows="1" fold="1" page="1" pageScale="1" pageWidth="850" pageHeight="1100" math="0" shadow="0">
      <root>
        <mxCell id="0" />
        <mxCell id="1" parent="0" />
        <mxCell id="3nuBFxr9cyL0pnOWT2aG-1" value=":Vk bot" style="shape=umlLifeline;perimeter=lifelinePerimeter;container=1;collapsible=0;recursiveResize=0;rounded=0;shadow=0;strokeWidth=1;" parent="1" vertex="1">
          <mxGeometry x="210" y="80" width="100" height="822" as="geometry" />
        </mxCell>
        <mxCell id="3nuBFxr9cyL0pnOWT2aG-2" value="" style="points=[];perimeter=orthogonalPerimeter;rounded=0;shadow=0;strokeWidth=1;" parent="3nuBFxr9cyL0pnOWT2aG-1" vertex="1">
          <mxGeometry x="45" y="70" width="10" height="160" as="geometry" />
        </mxCell>
        <mxCell id="3nuBFxr9cyL0pnOWT2aG-3" value="1.1 wall_comment_new" style="verticalAlign=bottom;startArrow=oval;endArrow=block;startSize=8;shadow=0;strokeWidth=1;" parent="3nuBFxr9cyL0pnOWT2aG-1" target="3nuBFxr9cyL0pnOWT2aG-2" edge="1">
          <mxGeometry relative="1" as="geometry">
            <mxPoint x="-70" y="70" as="sourcePoint" />
          </mxGeometry>
        </mxCell>
        <mxCell id="whiCZ9kjEB2Ys4vIyF15-50" value="" style="html=1;points=[];perimeter=orthogonalPerimeter;" parent="3nuBFxr9cyL0pnOWT2aG-1" vertex="1">
          <mxGeometry x="45" y="750" width="10" height="60" as="geometry" />
        </mxCell>
        <mxCell id="whiCZ9kjEB2Ys4vIyF15-52" value="wall.post" style="html=1;verticalAlign=bottom;endArrow=open;dashed=1;endSize=8;exitX=1;exitY=0.95;" parent="3nuBFxr9cyL0pnOWT2aG-1" source="whiCZ9kjEB2Ys4vIyF15-50" target="whiCZ9kjEB2Ys4vIyF15-53" edge="1">
          <mxGeometry relative="1" as="geometry">
            <mxPoint x="-60" y="807" as="targetPoint" />
          </mxGeometry>
        </mxCell>
        <mxCell id="whiCZ9kjEB2Ys4vIyF15-53" value="" style="ellipse;html=1;shape=endState;fillColor=#000000;strokeColor=#ff0000;" parent="3nuBFxr9cyL0pnOWT2aG-1" vertex="1">
          <mxGeometry x="-75" y="792" width="30" height="30" as="geometry" />
        </mxCell>
        <mxCell id="3nuBFxr9cyL0pnOWT2aG-5" value=":Backend (strapi)" style="shape=umlLifeline;perimeter=lifelinePerimeter;container=1;collapsible=0;recursiveResize=0;rounded=0;shadow=0;strokeWidth=1;" parent="1" vertex="1">
          <mxGeometry x="365" y="80" width="120" height="800" as="geometry" />
        </mxCell>
        <mxCell id="3nuBFxr9cyL0pnOWT2aG-6" value="" style="points=[];perimeter=orthogonalPerimeter;rounded=0;shadow=0;strokeWidth=1;" parent="3nuBFxr9cyL0pnOWT2aG-5" vertex="1">
          <mxGeometry x="55" y="90" width="10" height="80" as="geometry" />
        </mxCell>
        <mxCell id="whiCZ9kjEB2Ys4vIyF15-25" value="" style="html=1;points=[];perimeter=orthogonalPerimeter;" parent="3nuBFxr9cyL0pnOWT2aG-5" vertex="1">
          <mxGeometry x="55" y="390" width="10" height="360" as="geometry" />
        </mxCell>
        <mxCell id="whiCZ9kjEB2Ys4vIyF15-32" value="1.3 getWallPostById" style="html=1;verticalAlign=bottom;endArrow=block;entryX=-0.1;entryY=0.018;entryDx=0;entryDy=0;entryPerimeter=0;" parent="3nuBFxr9cyL0pnOWT2aG-5" target="whiCZ9kjEB2Ys4vIyF15-31" edge="1">
          <mxGeometry width="80" relative="1" as="geometry">
            <mxPoint x="65" y="101" as="sourcePoint" />
            <mxPoint x="165" y="101" as="targetPoint" />
          </mxGeometry>
        </mxCell>
        <mxCell id="MOe6mo8qbaaEguN8VAdr-24" value="" style="html=1;points=[];perimeter=orthogonalPerimeter;" vertex="1" parent="3nuBFxr9cyL0pnOWT2aG-5">
          <mxGeometry x="60" y="600" width="10" height="60" as="geometry" />
        </mxCell>
        <mxCell id="3nuBFxr9cyL0pnOWT2aG-8" value="1.2.getWallPostById" style="verticalAlign=bottom;endArrow=block;entryX=0;entryY=0;shadow=0;strokeWidth=1;" parent="1" source="3nuBFxr9cyL0pnOWT2aG-2" target="3nuBFxr9cyL0pnOWT2aG-6" edge="1">
          <mxGeometry relative="1" as="geometry">
            <mxPoint x="275" y="160" as="sourcePoint" />
          </mxGeometry>
        </mxCell>
        <mxCell id="whiCZ9kjEB2Ys4vIyF15-2" value=":Task Renderer" style="shape=umlLifeline;perimeter=lifelinePerimeter;container=1;collapsible=0;recursiveResize=0;rounded=0;shadow=0;strokeWidth=1;" parent="1" vertex="1">
          <mxGeometry x="640" y="80" width="100" height="750" as="geometry" />
        </mxCell>
        <mxCell id="whiCZ9kjEB2Ys4vIyF15-40" value="" style="html=1;points=[];perimeter=orthogonalPerimeter;" parent="whiCZ9kjEB2Ys4vIyF15-2" vertex="1">
          <mxGeometry x="45" y="530" width="10" height="200" as="geometry" />
        </mxCell>
        <mxCell id="whiCZ9kjEB2Ys4vIyF15-4" value=":Frontend" style="shape=umlLifeline;perimeter=lifelinePerimeter;container=1;collapsible=0;recursiveResize=0;rounded=0;shadow=0;strokeWidth=1;" parent="1" vertex="1">
          <mxGeometry x="750" y="80" width="180" height="750" as="geometry" />
        </mxCell>
        <mxCell id="whiCZ9kjEB2Ys4vIyF15-45" value="" style="html=1;points=[];perimeter=orthogonalPerimeter;" parent="whiCZ9kjEB2Ys4vIyF15-4" vertex="1">
          <mxGeometry x="85" y="550" width="10" height="160" as="geometry" />
        </mxCell>
        <mxCell id="MOe6mo8qbaaEguN8VAdr-3" value="&lt;font style=&quot;font-size: 77px&quot;&gt;БЛЯДЬ&lt;/font&gt;" style="rounded=0;whiteSpace=wrap;html=1;fillColor=#f8cecc;strokeColor=#b85450;" vertex="1" parent="whiCZ9kjEB2Ys4vIyF15-4">
          <mxGeometry x="20" y="330" width="280" height="120" as="geometry" />
        </mxCell>
        <mxCell id="whiCZ9kjEB2Ys4vIyF15-18" value="1.5 return wall post (with attached post)" style="html=1;verticalAlign=bottom;endArrow=open;dashed=1;endSize=8;entryX=1.14;entryY=0.511;entryDx=0;entryDy=0;entryPerimeter=0;" parent="1" source="3nuBFxr9cyL0pnOWT2aG-6" target="3nuBFxr9cyL0pnOWT2aG-2" edge="1">
          <mxGeometry relative="1" as="geometry">
            <mxPoint x="330" y="280" as="sourcePoint" />
            <mxPoint x="290" y="270" as="targetPoint" />
          </mxGeometry>
        </mxCell>
        <mxCell id="whiCZ9kjEB2Ys4vIyF15-22" value="" style="ellipse;html=1;shape=endState;fillColor=#000000;strokeColor=#ff0000;" parent="1" vertex="1">
          <mxGeometry y="280" width="30" height="30" as="geometry" />
        </mxCell>
        <mxCell id="whiCZ9kjEB2Ys4vIyF15-21" value="1.6 wall.createComment" style="html=1;verticalAlign=bottom;endArrow=open;dashed=1;endSize=8;entryX=1;entryY=0.5;entryDx=0;entryDy=0;" parent="1" source="3nuBFxr9cyL0pnOWT2aG-1" target="whiCZ9kjEB2Ys4vIyF15-22" edge="1">
          <mxGeometry relative="1" as="geometry">
            <mxPoint x="110" y="330" as="sourcePoint" />
            <mxPoint x="40" y="300" as="targetPoint" />
          </mxGeometry>
        </mxCell>
        <mxCell id="whiCZ9kjEB2Ys4vIyF15-29" value="2.1 /task/:id/post" style="html=1;verticalAlign=bottom;startArrow=oval;startFill=1;endArrow=block;startSize=8;" parent="1" edge="1">
          <mxGeometry width="60" relative="1" as="geometry">
            <mxPoint x="40" y="478" as="sourcePoint" />
            <mxPoint x="420" y="478" as="targetPoint" />
          </mxGeometry>
        </mxCell>
        <mxCell id="whiCZ9kjEB2Ys4vIyF15-30" value=":Database" style="shape=umlLifeline;perimeter=lifelinePerimeter;container=1;collapsible=0;recursiveResize=0;rounded=0;shadow=0;strokeWidth=1;" parent="1" vertex="1">
          <mxGeometry x="520" y="80" width="100" height="710" as="geometry" />
        </mxCell>
        <mxCell id="whiCZ9kjEB2Ys4vIyF15-31" value="" style="points=[];perimeter=orthogonalPerimeter;rounded=0;shadow=0;strokeWidth=1;" parent="whiCZ9kjEB2Ys4vIyF15-30" vertex="1">
          <mxGeometry x="45" y="100" width="10" height="40" as="geometry" />
        </mxCell>
        <mxCell id="whiCZ9kjEB2Ys4vIyF15-37" value="" style="html=1;points=[];perimeter=orthogonalPerimeter;" parent="whiCZ9kjEB2Ys4vIyF15-30" vertex="1">
          <mxGeometry x="44" y="400" width="10" height="80" as="geometry" />
        </mxCell>
        <mxCell id="whiCZ9kjEB2Ys4vIyF15-33" value="1.4 return" style="html=1;verticalAlign=bottom;endArrow=open;dashed=1;endSize=8;exitX=-0.1;exitY=0.979;exitDx=0;exitDy=0;exitPerimeter=0;" parent="1" source="whiCZ9kjEB2Ys4vIyF15-31" target="3nuBFxr9cyL0pnOWT2aG-6" edge="1">
          <mxGeometry relative="1" as="geometry">
            <mxPoint x="540" y="229" as="sourcePoint" />
            <mxPoint x="440" y="230" as="targetPoint" />
          </mxGeometry>
        </mxCell>
        <mxCell id="whiCZ9kjEB2Ys4vIyF15-38" value="2.2 get task by id" style="html=1;verticalAlign=bottom;endArrow=block;entryX=0;entryY=0;" parent="1" target="whiCZ9kjEB2Ys4vIyF15-37" edge="1">
          <mxGeometry relative="1" as="geometry">
            <mxPoint x="431" y="480" as="sourcePoint" />
          </mxGeometry>
        </mxCell>
        <mxCell id="whiCZ9kjEB2Ys4vIyF15-39" value="2.3 return Task" style="html=1;verticalAlign=bottom;endArrow=open;dashed=1;endSize=8;exitX=0;exitY=0.95;" parent="1" source="whiCZ9kjEB2Ys4vIyF15-37" edge="1">
          <mxGeometry relative="1" as="geometry">
            <mxPoint x="430" y="556" as="targetPoint" />
          </mxGeometry>
        </mxCell>
        <mxCell id="whiCZ9kjEB2Ys4vIyF15-41" value="2.4 POST /task/&amp;nbsp;" style="html=1;verticalAlign=bottom;endArrow=block;entryX=0;entryY=0;" parent="1" source="3nuBFxr9cyL0pnOWT2aG-5" target="whiCZ9kjEB2Ys4vIyF15-40" edge="1">
          <mxGeometry relative="1" as="geometry">
            <mxPoint x="645" y="610" as="sourcePoint" />
          </mxGeometry>
        </mxCell>
        <mxCell id="whiCZ9kjEB2Ys4vIyF15-46" value="2.5 get markup (//add endpoint))" style="html=1;verticalAlign=bottom;endArrow=block;entryX=0;entryY=0;" parent="1" source="whiCZ9kjEB2Ys4vIyF15-40" target="whiCZ9kjEB2Ys4vIyF15-45" edge="1">
          <mxGeometry relative="1" as="geometry">
            <mxPoint x="850" y="630" as="sourcePoint" />
          </mxGeometry>
        </mxCell>
        <mxCell id="whiCZ9kjEB2Ys4vIyF15-47" value="2.8&amp;nbsp; return markup" style="html=1;verticalAlign=bottom;endArrow=open;dashed=1;endSize=8;exitX=0;exitY=0.95;" parent="1" source="whiCZ9kjEB2Ys4vIyF15-45" target="whiCZ9kjEB2Ys4vIyF15-2" edge="1">
          <mxGeometry relative="1" as="geometry">
            <mxPoint x="800" y="706" as="targetPoint" />
          </mxGeometry>
        </mxCell>
        <mxCell id="whiCZ9kjEB2Ys4vIyF15-42" value="2.9 return image/png" style="html=1;verticalAlign=bottom;endArrow=open;dashed=1;endSize=8;exitX=0;exitY=0.95;" parent="1" source="whiCZ9kjEB2Ys4vIyF15-40" target="3nuBFxr9cyL0pnOWT2aG-5" edge="1">
          <mxGeometry relative="1" as="geometry">
            <mxPoint x="645" y="686" as="targetPoint" />
          </mxGeometry>
        </mxCell>
        <mxCell id="whiCZ9kjEB2Ys4vIyF15-51" value="2.10 /post&amp;nbsp;" style="html=1;verticalAlign=bottom;endArrow=block;entryX=1;entryY=0;" parent="1" source="3nuBFxr9cyL0pnOWT2aG-5" target="whiCZ9kjEB2Ys4vIyF15-50" edge="1">
          <mxGeometry relative="1" as="geometry">
            <mxPoint x="235" y="830" as="sourcePoint" />
          </mxGeometry>
        </mxCell>
        <mxCell id="MOe6mo8qbaaEguN8VAdr-25" value="2.6 /tasks/:id" style="html=1;verticalAlign=bottom;endArrow=block;entryX=1;entryY=0;exitX=-0.235;exitY=0.313;exitDx=0;exitDy=0;exitPerimeter=0;" edge="1" target="MOe6mo8qbaaEguN8VAdr-24" parent="1" source="whiCZ9kjEB2Ys4vIyF15-45">
          <mxGeometry relative="1" as="geometry">
            <mxPoint x="495" y="680" as="sourcePoint" />
          </mxGeometry>
        </mxCell>
        <mxCell id="MOe6mo8qbaaEguN8VAdr-26" value="2.7 return task data" style="html=1;verticalAlign=bottom;endArrow=open;dashed=1;endSize=8;exitX=1;exitY=0.95;entryX=-0.176;entryY=0.676;entryDx=0;entryDy=0;entryPerimeter=0;" edge="1" source="MOe6mo8qbaaEguN8VAdr-24" parent="1" target="whiCZ9kjEB2Ys4vIyF15-45">
          <mxGeometry relative="1" as="geometry">
            <mxPoint x="820" y="737" as="targetPoint" />
          </mxGeometry>
        </mxCell>
        <mxCell id="MOe6mo8qbaaEguN8VAdr-33" value="Checks if task exists" style="whiteSpace=wrap;html=1;rounded=1;arcSize=50;align=center;verticalAlign=middle;strokeWidth=1;autosize=1;spacing=4;treeFolding=1;treeMoving=1;newEdgeStyle={&quot;edgeStyle&quot;:&quot;entityRelationEdgeStyle&quot;,&quot;startArrow&quot;:&quot;none&quot;,&quot;endArrow&quot;:&quot;none&quot;,&quot;segment&quot;:10,&quot;curved&quot;:1};" vertex="1" parent="1">
          <mxGeometry x="280" y="570" width="120" height="20" as="geometry" />
        </mxCell>
        <mxCell id="MOe6mo8qbaaEguN8VAdr-34" value="" style="edgeStyle=entityRelationEdgeStyle;startArrow=none;endArrow=none;segment=10;curved=1;exitX=-0.086;exitY=0.294;exitDx=0;exitDy=0;exitPerimeter=0;" edge="1" target="MOe6mo8qbaaEguN8VAdr-33" parent="1" source="whiCZ9kjEB2Ys4vIyF15-25">
          <mxGeometry relative="1" as="geometry">
            <mxPoint x="352" y="610" as="sourcePoint" />
          </mxGeometry>
        </mxCell>
      </root>
    </mxGraphModel>
  </diagram>
</mxfile>
